<svg width="1440" height="650" viewBox="0 0 1440 650" fill="none" xmlns="http://www.w3.org/2000/svg">
<g clipPath="url(#clip0_57_514)">
<path d="M0 0H1440V565C1440 611.944 1401.94 650 1355 650H85C38.0558 650 0 611.944 0 565V0Z" fill="#F7EEE5"/>
<path fill-rule="evenodd" clip-rule="evenodd" d="M19.0469 325C-11.907 325 -37 350.093 -37 381.047V530.505C-37 532.359 -36.91 534.192 -36.7341 536C-33.973 507.625 -10.053 485.448 19.0469 485.448C48.1467 485.448 72.0668 507.625 74.8278 536C75.0037 534.192 75.0937 532.359 75.0937 530.505V381.047C75.0937 350.093 50.0007 325 19.0469 325Z" fill="#FB8500"/>
<path d="M75 540C88.8071 540 100 551.193 100 565V660H75V540Z" fill="#FB8500"/>
</g>
<defs>
<clipPath id="clip0_57_514">
<rect width="1440" height="650" fill="white"/>
</clipPath>
</defs>
</svg>
