<svg width="15" height="16" viewBox="0 0 15 16" fill="none" xmlns="http://www.w3.org/2000/svg">
<path d="M14.266 9.51598C14.4975 9.33684 14.6848 9.10706 14.8138 8.84428C14.9427 8.5815 15.0097 8.29269 15.0097 7.99998C15.0097 7.70728 14.9427 7.41847 14.8138 7.15569C14.6848 6.89291 14.4975 6.66313 14.266 6.48398C11.2685 4.16461 7.92144 2.33647 4.35 1.06798L3.697 0.835985C2.449 0.392985 1.13 1.23699 0.961002 2.52599C0.48889 6.16005 0.48889 9.83992 0.961002 13.474C1.131 14.763 2.449 15.607 3.697 15.164L4.35 14.932C7.92144 13.6635 11.2685 11.8354 14.266 9.51598Z" fill="white"/>
</svg>
